<svg width="100" height="100" viewBox="0 0 100 100" fill="none" xmlns="http://www.w3.org/2000/svg">
<path d="M100 50C100 77.6142 77.6142 100 50 100C22.3858 100 0 77.6142 0 50C0 22.3858 22.3858 0 50 0C77.6142 0 100 22.3858 100 50Z" fill="#FF7B00"/>
<path d="M24.0455 87V17.1818H45.6364V29.9091H46.3636C47.6364 25.303 49.7121 21.8788 52.5909 19.6364C55.4697 17.3636 58.8182 16.2273 62.6364 16.2273C63.6667 16.2273 64.7273 16.303 65.8182 16.4545C66.9091 16.5758 67.9242 16.7727 68.8636 17.0455V36.3636C67.803 36 66.4091 35.7121 64.6818 35.5C62.9849 35.2879 61.4697 35.1818 60.1364 35.1818C57.5 35.1818 55.1212 35.7727 53 36.9545C50.9091 38.1061 49.2576 39.7273 48.0455 41.8182C46.8636 43.8788 46.2727 46.303 46.2727 49.0909V87H24.0455Z" fill="black"/>
<path d="M66.5455 73.3182C63.2727 73.3182 60.4697 72.1667 58.1364 69.8636C55.8333 67.5606 54.697 64.7727 54.7273 61.5C54.697 58.2879 55.8333 55.5455 58.1364 53.2727C60.4697 50.9697 63.2727 49.8182 66.5455 49.8182C69.6364 49.8182 72.3636 50.9697 74.7273 53.2727C77.1212 55.5455 78.3333 58.2879 78.3636 61.5C78.3333 63.6818 77.7576 65.6667 76.6364 67.4545C75.5455 69.2424 74.1061 70.6667 72.3182 71.7273C70.5606 72.7879 68.6364 73.3182 66.5455 73.3182Z" fill="black"/>
</svg>
